<svg id="Слой_1" xmlns="http://www.w3.org/2000/svg" viewBox="0 0 512 512"><style>.st0{fill:#f01672}</style><path class="st0" d="M256 483.5c-7.3 0-14.3-2.6-19.8-7.4C215.5 458 195.6 441 178 426l-.1-.1C126.3 382 81.8 344 50.8 306.6 16.1 264.8 0 225.2 0 181.9 0 139.8 14.4 101 40.6 72.6 67.1 43.8 103.5 28 143 28c29.6 0 56.6 9.3 80.4 27.8 12 9.3 22.9 20.7 32.5 34 9.6-13.3 20.5-24.7 32.5-34 24-18.5 51-27.8 80.6-27.8 39.5 0 75.9 15.8 102.4 44.6C497.6 101 512 139.8 512 181.9c0 43.3-16.1 82.9-50.8 124.7-31 37.4-75.5 75.4-127.1 119.3-17.6 15-37.6 32-58.3 50.2-5.5 4.8-12.5 7.4-19.8 7.4zM143 58c-31 0-59.6 12.4-80.3 34.9-21.1 22.9-32.7 54.4-32.7 89 0 36.4 13.5 69 43.9 105.6 29.3 35.4 73 72.6 123.5 115.6l.1.1c17.7 15.1 37.7 32.1 58.5 50.3 21-18.3 41-35.3 58.7-50.4 50.5-43.1 94.1-80.2 123.5-115.6 30.3-36.6 43.9-69.2 43.9-105.6 0-34.5-11.6-66.1-32.7-89C428.6 70.4 400 58 369 58c-22.8 0-43.7 7.2-62.1 21.5-16.4 12.7-27.9 28.8-34.6 40-3.5 5.8-9.5 9.2-16.3 9.2s-12.8-3.5-16.3-9.2c-6.7-11.3-18.2-27.3-34.6-40C186.7 65.2 165.8 58 143 58z"/></svg>