<svg id="Слой_1" xmlns="http://www.w3.org/2000/svg" viewBox="0 0 34 34"><style>.st0{fill:#fff}</style><path class="st0" d="M24.8 0H9.2C4.1 0 0 4.1 0 9.2v15.6C0 29.9 4.1 34 9.2 34h15.6c5.1 0 9.2-4.1 9.2-9.2V9.2C34 4.1 29.9 0 24.8 0zM32 24.8c0 4-3.2 7.2-7.2 7.2H9.2c-4 0-7.2-3.2-7.2-7.2V9.2C2 5.2 5.2 2 9.2 2h15.6c4 0 7.2 3.2 7.2 7.2v15.6z"/><path class="st0" d="M17 7.7c-5.1 0-9.3 4.2-9.3 9.3 0 5.1 4.2 9.3 9.3 9.3 5.1 0 9.3-4.2 9.3-9.3 0-5.1-4.2-9.3-9.3-9.3zm0 16.6c-4 0-7.3-3.3-7.3-7.3S13 9.7 17 9.7s7.3 3.3 7.3 7.3-3.3 7.3-7.3 7.3zm9.5-19.9c-1.5 0-2.7 1.2-2.7 2.7 0 1.5 1.2 2.7 2.7 2.7s2.7-1.2 2.7-2.7-1.2-2.7-2.7-2.7zm0 3.5c-.4 0-.8-.3-.8-.8 0-.4.3-.8.8-.8.4 0 .8.3.8.8s-.4.8-.8.8z"/></svg>