<svg id="Слой_1" xmlns="http://www.w3.org/2000/svg" viewBox="0 0 49 46"><style>.st0{fill:#0f1318}</style><path class="st0" d="M23 19v-2.5h1.6c.1 0 .3.1.4.1.1.1.2.1.2.3 0 .1.1.2.1.4v1c0 .1 0 .3-.1.4 0 .1-.1.2-.2.3-.1.1-.3.1-.4.1H24l-1-.1zm.1 3v-.4h.6v-1.7h-.6v-.4h2.1v.4h-.6v1.7h.6v.4h-2.1zm.8-3.4h.4V17h-.4v1.6zm.7 6.4c-.4.1-.7.1-1.1 0-.1 0-.3-.1-.4-.2s-.1-.2-.2-.3c0-.1-.1-.2-.1-.4v-1c0-.1 0-.2.1-.4 0-.1.1-.2.2-.3.1-.1.2-.1.4-.2.4-.1.7-.1 1.1 0 .1 0 .3.1.4.2s.2.2.2.3c0 .1.1.2.1.4v1c0 .1 0 .2-.1.3 0 .1-.1.2-.2.3-.1.2-.2.3-.4.3zm-.5-.4h.1s.1 0 .1-.1v-1.7l-.1-.1h-.3v1.9h.2zm.1-16.8c-.3 0-.6 0-.8-.2-.1-.1-.2-.2-.2-.3-.1 0-.2-.2-.2-.3l.8-.1v.2s0 .1.1.1l.1.1h.1c.1 0 .2 0 .2-.2V7s0-.1-.1-.1c-.1-.1-.2-.2-.3-.2l-.2-.1-.2-.1-.2-.1c-.1-.1-.1-.1-.1-.2V6c0-.1 0-.2.1-.3.1-.1.1-.2.2-.2.3-.1.5-.2.8-.2.6 0 1 .2 1 .7h-.8v-.4h-.3V6h.3l.2.1.2.2.1.2c.1.1.1.1.1.2v.2c0 .1 0 .2-.1.3l-.2.2c-.2.1-.5.2-.8.2l.2.2zm-.6 3V8.7H23v-.5h2.1v.5h-.6v2.1h-.9zm.5 3h-.6c-.1 0-.3-.1-.4-.2-.1-.1-.2-.2-.2-.3s-.1-.2-.1-.3v-1.8h.9v2.1s0 .1.1.1h.2s.1 0 .1-.1v-2.1h.9V13c0 .1 0 .2-.1.4 0 .1-.1.2-.2.3s-.2.1-.4.1c.1-.1 0-.1-.2 0zm24.1 21.7H0v.9h48.2v-.9zM33.2.1c-.8 0-1.6.3-2.2.8-.3.4-.4.7-.5 1.2-.1.4-.1.9 0 1.3v25.8l2.8.2L33.2.1zm4 2.7c2.5 0 4.5 0 7.1.2.7.1.6.1.7.8.3 3 .3 6.1 0 9.1-.1.6-.3.5-.8.5h-5v2.8h4.3c1.2 0 1.5-.1 1.5.5.3 3 .4 6 .1 9-.1.8 0 .8-.8.9-2.7.2-5.2.3-7.8.3v2.7c2.9 0 5.7 0 8.5-.3 1.2-.1 2.3-.3 2.7-1.6.1-.6.2-1.2.3-1.9.3-2.7.3-5.4 0-8.2.1-1-.2-1.9-.8-2.6l-.2-.2c0-.1.2-.1.3-.2.6-.7.9-1.7.8-2.6.2-2.7.2-5.3 0-8C48 2.8 48 1.5 47 .8c-.5-.3-1.1-.5-1.6-.5-2.7-.2-5.3-.3-8-.3l-.2 2.8zM2.8.1C2 .1 1.2.4.6.9c-.3.4-.5.8-.6 1.2s-.1.9 0 1.3v25.8l2.8.2V.1zm4 2.7c2.5 0 4.5 0 7.1.2.7.1.6.1.7.8.3 3 .3 6.1 0 9.1-.1.6-.3.5-.8.5h-5v2.8H13c1.2 0 1.5-.1 1.5.5.3 3 .4 6 .1 9-.1.8 0 .8-.8.9-2.7.2-5.2.3-7.8.3v2.7c2.9 0 5.7-.1 8.6-.3 1.2-.1 2.3-.3 2.7-1.6.1-.6.2-1.2.3-1.9.3-2.7.3-5.4 0-8.2.1-1-.2-1.9-.8-2.6l-.2-.2c0-.1.2-.1.3-.2.6-.7.9-1.7.8-2.6.2-2.7.2-5.3 0-8-.1-1.2-.1-2.5-1.1-3.2-.5-.3-1.1-.5-1.7-.5C12.1 0 9.4-.1 6.8 0v2.8zM1.3 41.2h.8c.1 0 .3-.1.4-.2.2-.2.2-.5.2-.8 0-.2 0-.3-.1-.5 0-.1-.1-.2-.2-.3-.1-.1-.2-.1-.4-.1h-.7v1.9zm0 3.3h.9c.1 0 .3-.1.4-.2.2-.3.2-.6.2-.9 0-.3-.1-.6-.2-.9-.1-.1-.2-.2-.4-.2-.1-.1-.3-.1-.5-.1h-.4v2.3zm-1.3.9v-7.2h1.8c.3 0 .6 0 .9.1.2.1.5.2.7.3s.4.3.4.6c.1.3.2.6.1.9 0 .9-.4 1.4-1.1 1.5.2 0 .4.1.5.2.2.1.3.2.4.4.2.4.3.8.3 1.2 0 .3 0 .6-.1.8-.1.3-.2.5-.4.7s-.4.3-.7.4c-.3.1-.5.1-.8.1H0zm5 0v-7.2h3v.9H6.3v2h1.3v1H6.3v2.4H8v.9H5zm7.5-4.2h.8c.1 0 .3-.1.4-.2.2-.2.2-.5.2-.8 0-.2 0-.3-.1-.5 0-.1-.1-.2-.2-.3-.1-.1-.2-.1-.4-.1h-.8v1.9h.1zm0 3.3h.9c.1 0 .3-.1.4-.2.2-.3.2-.6.2-.9 0-.3-.1-.6-.2-.9-.1-.1-.2-.2-.4-.2-.1-.1-.3-.1-.5-.1h-.4v2.3zm-1.3.9v-7.2H13c.3 0 .6 0 .9.1.2.1.5.2.7.3s.4.3.4.6c.1.3.2.6.1.9 0 .9-.4 1.4-1.1 1.5.2 0 .4.1.5.2s.3.2.4.4c.2.4.3.8.3 1.2 0 .3 0 .6-.1.8-.1.3-.2.5-.4.7s-.4.3-.7.4c-.3.1-.5.1-.8.1h-2zm5 0v-7.2h3v.9h-1.7v2h1.3v1h-1.3v2.4h1.7v.9h-3zm5.2-2.5h1l-.5-2.9-.5 2.9zm-1.6 2.5l1.5-7.2h1.3l1.4 7.2h-1.2l-.2-1.7h-1.2l-.4 1.7h-1.2zm7 .1c-.3 0-.6 0-.8-.1l-.6-.3c-.2-.1-.3-.3-.4-.5s-.2-.5-.2-.7c0-.3-.1-.6-.1-.9v-4.8H26v5.3c0 .1 0 .2.1.4 0 .1.1.2.1.3l.2.2c.1.1.2.1.3.1.1 0 .2 0 .3-.1.1 0 .2-.1.2-.2.1-.1.1-.2.1-.3s0-.2.1-.4v-5.3h1.3V43c0 .3 0 .6-.1.9 0 .2-.1.5-.2.7s-.2.4-.4.5l-.6.3c-.1.1-.4.1-.6.1zm3.8-.1v-6.2h-1.2v-1h3.7v1h-1.2v6.2h-1.3zm3.2 0v-7.2h1.3v7.2h-1.3zm2.5 0v-7.2h2.9v.9h-1.6v2.1H39v.9h-1.3v3.3h-1.4zm5.7.1c-.3 0-.6 0-.8-.1l-.6-.3c-.2-.1-.3-.3-.4-.5-.1-.2-.2-.5-.2-.7 0-.3-.1-.6 0-.9v-4.8h1.3v5.3c0 .1 0 .2.1.4 0 .1.1.2.1.3l.2.2c.1.1.2.1.3.1s.2 0 .3-.1c.1 0 .2-.1.2-.2.1-.1.1-.2.1-.3s0-.2.1-.4v-5.3H44V43c0 .3 0 .6-.1.9 0 .2-.1.5-.2.7-.1.2-.2.4-.4.5l-.6.3c-.2.1-.4.1-.7.1zm3.1-.1v-7.2h1.3v6.3h1.7v.9h-3z"/></svg>