<svg xmlns="http://www.w3.org/2000/svg" viewBox="0 0 28.7 28.7"><path d="M3.1 11.1s.9-1.1.3-2.7c-.5-1.6-1.9-2.2-1.9-2.2s-1 1.4-.4 2.9c.6 1.6 2 2 2 2zm2.5.9s1.5-.1 2.4-1.5c.9-1.4.2-2.9.2-2.9s-1.4.2-2.3 1.6C5 10.6 5.6 12 5.6 12zm.2 1.8c-.7 1.5.1 2.7.1 2.7s1.5-.3 2.2-1.8c.7-1.5-.2-2.9-.2-2.9s-1.4.5-2.1 2zM9.3 15s-1.3.6-1.9 2.2c-.6 1.6.3 2.7.3 2.7s1.5-.5 2-2c.6-1.5-.4-2.9-.4-2.9zm1.1 8.4s1.3-.9 1.4-2.5c.1-1.6-1.3-2.7-1.3-2.7s-1.1 1-1.2 2.6c-.1 1.7 1.1 2.6 1.1 2.6zM5.1 8.1S6.5 7.6 6.9 6c.4-1.6-.4-2.9-.4-2.9s-1.6.6-2 2.2c-.4 1.6.6 2.8.6 2.8zm-2 6.5s.5-1.4-.5-2.7c-1-1.3-2.5-1.5-2.5-1.5s-.6 1.6.4 2.9c1.1 1.3 2.6 1.3 2.6 1.3zm1.2 3.6s.2-1.4-1.1-2.5-2.8-.9-2.8-.9-.2 1.7 1.1 2.7c1.3 1 2.8.7 2.8.7zM6 21.1s-.2-1.4-1.8-2.1c-1.6-.6-2.9 0-2.9 0s.3 1.7 1.8 2.3c1.6.6 2.9-.2 2.9-.2zm.8 1.3c-1.6-.5-2.9.3-2.9.3s.5 1.6 2.1 2c1.6.4 2.8-.5 2.8-.5s-.4-1.4-2-1.8z"/><path d="M5.3 9.1l-.7-.4c0 .1-3.8 8 6.7 16.9l.5-.6C1.8 16.5 5.1 9.4 5.3 9.1zm20.2 2s-.9-1.1-.3-2.7c.6-1.6 1.9-2.2 1.9-2.2s1 1.4.4 2.9c-.5 1.6-2 2-2 2zm-2.4.8s-1.5-.1-2.4-1.5c-.9-1.4-.2-2.9-.2-2.9s1.4.3 2.4 1.7c.8 1.4.2 2.7.2 2.7zm-.2 1.9c.7 1.5-.1 2.7-.1 2.7s-1.5-.3-2.2-1.8c-.7-1.5.2-2.9.2-2.9s1.4.4 2.1 2zM19.4 15s1.3.6 1.9 2.2c.6 1.6-.3 2.7-.3 2.7s-1.5-.5-2-2 .4-2.9.4-2.9zm-1.1 8.3s-1.3-.9-1.4-2.5c-.1-1.6 1.3-2.7 1.3-2.7s1.1 1 1.2 2.6c.1 1.8-1.1 2.6-1.1 2.6zm5.3-15.2s-1.4-.5-1.8-2.1c-.4-1.6.4-2.9.4-2.9s1.6.6 2 2.2c.3 1.6-.6 2.8-.6 2.8zm1.9 6.5s-.5-1.4.5-2.7c1-1.3 2.5-1.5 2.5-1.5s.6 1.6-.4 2.9c-1 1.3-2.6 1.3-2.6 1.3zm-1.1 3.6s-.2-1.4 1.1-2.5 2.8-.9 2.8-.9.2 1.7-1.1 2.7-2.8.7-2.8.7zm-1.7 2.9s.2-1.4 1.8-2.1c1.6-.6 2.9-.1 2.9-.1s-.3 1.7-1.8 2.3c-1.6.7-2.9-.1-2.9-.1zm-.8 1.3c1.6-.5 2.9.3 2.9.3s-.5 1.6-2.1 2.1c-1.6.4-2.8-.5-2.8-.5s.4-1.5 2-1.9z"/><path d="M23.4 9l.7-.4c0 .1 3.8 8-6.7 16.9l-.5-.5c10-8.5 6.6-15.7 6.5-16z"/></svg>